<svg width="16" height="17" viewBox="0 0 16 17" fill="none" xmlns="http://www.w3.org/2000/svg">
<g clip-path="url(#clip0_305_952)">
<path d="M3.27979 14.9978H5.97156V16.5278H12.3763C12.3763 16.5278 12.1316 14.3084 13.6563 12.3959C14.8468 10.9036 15.6374 9.10447 15.5104 6.24753C15.3833 3.39531 13.1104 0.774473 9.45861 0.495862C7.55273 0.349473 5.19509 0.920862 3.79744 2.36586C2.47979 3.72586 2.65861 5.40225 2.46097 7.09753C2.39509 7.66892 -0.381385 10.8659 0.729203 11.0595C1.02567 11.1114 1.82097 11.2531 1.82097 11.2531L2.06097 13.6378C2.06097 13.6378 2.19273 15.0025 3.27979 15.0025V14.9978Z" stroke="#9E9E9E" stroke-width="2" stroke-linejoin="round"/>
<path d="M6.44241 7.55064C6.38594 7.94258 5.793 8.17397 5.12006 8.06536C4.44712 7.95675 3.9483 7.55536 4.00947 7.15869" stroke="#9E9E9E" stroke-width="2" stroke-linejoin="round"/>
</g>
<defs>
<clipPath id="clip0_305_952">
<rect width="16" height="17" fill="white"/>
</clipPath>
</defs>
</svg>
