<svg width="29" height="29" viewBox="0 0 29 29" fill="none" xmlns="http://www.w3.org/2000/svg">
<path fill-rule="evenodd" clip-rule="evenodd" d="M12.5516 22.1381C12.6659 22.9401 13.5019 23.5625 14.5161 23.5625C15.6084 23.5625 16.4938 22.8405 16.4937 21.9499L16.4829 16.4726L21.95 16.4617L22.1381 16.4484C22.9401 16.3341 23.5625 15.4981 23.5625 14.4839C23.5625 13.3916 22.8405 12.5062 21.9499 12.5062L16.4742 12.5171L16.4617 7.05011L16.4501 6.8744C16.3427 6.06647 15.5035 5.43753 14.484 5.4375L14.2534 5.44834C13.2698 5.54146 12.5063 6.22301 12.5063 7.04997L12.5186 12.5258L7.05011 12.5383L6.8744 12.5499C6.06647 12.6573 5.43753 13.4965 5.4375 14.516L5.44834 14.7466C5.54146 15.7302 6.22301 16.4937 7.04997 16.4937L12.5274 16.4814L12.5383 21.95L12.5516 22.1381Z" fill="#D7D7D7"/>
</svg>
