<svg width="71" height="71" viewBox="0 0 71 71" fill="none" xmlns="http://www.w3.org/2000/svg">
<path fill-rule="evenodd" clip-rule="evenodd" d="M71 35.5C71 55.096 55.096 71 35.5 71C15.904 71 0 55.096 0 35.5C0 15.904 15.904 0 35.5 0C55.096 0 71 15.904 71 35.5ZM24.85 21.3C24.85 27.193 29.607 31.95 35.5 31.95C41.393 31.95 46.15 27.193 46.15 21.3C46.15 15.407 41.393 10.65 35.5 10.65C29.607 10.65 24.85 15.407 24.85 21.3ZM56.8 49.629C56.6935 42.5645 42.6 38.695 35.5 38.695C28.4355 38.695 14.3065 42.5645 14.2 49.629C18.7795 56.516 26.625 61.06 35.5 61.06C44.375 61.06 52.2205 56.516 56.8 49.629Z" fill="#D7D7D7"/>
</svg>
