<svg width="44" height="44" viewBox="0 0 44 44" fill="none" xmlns="http://www.w3.org/2000/svg">
<g clip-path="url(#clip0_1051_803)">
<path d="M1.83301 1.8335H9.16634L14.0797 26.3818C14.2473 27.2259 14.7065 27.9841 15.3768 28.5237C16.0472 29.0633 16.886 29.35 17.7463 29.3335H35.5663C36.4267 29.35 37.2655 29.0633 37.9358 28.5237C38.6062 27.9841 39.0654 27.2259 39.233 26.3818L42.1663 11.0002H10.9997M18.333 38.5002C18.333 39.5127 17.5122 40.3335 16.4997 40.3335C15.4872 40.3335 14.6663 39.5127 14.6663 38.5002C14.6663 37.4876 15.4872 36.6668 16.4997 36.6668C17.5122 36.6668 18.333 37.4876 18.333 38.5002ZM38.4997 38.5002C38.4997 39.5127 37.6789 40.3335 36.6663 40.3335C35.6538 40.3335 34.833 39.5127 34.833 38.5002C34.833 37.4876 35.6538 36.6668 36.6663 36.6668C37.6789 36.6668 38.4997 37.4876 38.4997 38.5002Z" stroke="#1E1E1E" stroke-width="4" stroke-linecap="round" stroke-linejoin="round"/>
</g>
<defs>
<clipPath id="clip0_1051_803">
<rect width="44" height="44" fill="white"/>
</clipPath>
</defs>
</svg>
