<svg width="50" height="50" viewBox="0 0 50 50" fill="none" xmlns="http://www.w3.org/2000/svg">
<path fill-rule="evenodd" clip-rule="evenodd" d="M50 25C50 38.8 38.8 50 25 50C11.2 50 0 38.8 0 25C0 11.2 11.2 0 25 0C38.8 0 50 11.2 50 25ZM17.5 15C17.5 19.15 20.85 22.5 25 22.5C29.15 22.5 32.5 19.15 32.5 15C32.5 10.85 29.15 7.5 25 7.5C20.85 7.5 17.5 10.85 17.5 15ZM40 34.95C39.925 29.975 30 27.25 25 27.25C20.025 27.25 10.075 29.975 10 34.95C13.225 39.8 18.75 43 25 43C31.25 43 36.775 39.8 40 34.95Z" fill="#D7D7D7"/>
</svg>
