<svg width="116" height="116" viewBox="0 0 116 116" fill="none" xmlns="http://www.w3.org/2000/svg">
<path fill-rule="evenodd" clip-rule="evenodd" d="M0 58C0 90.016 25.984 116 58 116C90.016 116 116 90.016 116 58C116 25.984 90.016 0 58 0C25.984 0 0 25.984 0 58ZM75.4 34.8C75.4 44.428 67.628 52.2 58 52.2C48.372 52.2 40.6 44.428 40.6 34.8C40.6 25.172 48.372 17.4 58 17.4C67.628 17.4 75.4 25.172 75.4 34.8ZM23.2 81.084C23.374 69.542 46.4 63.22 58 63.22C69.542 63.22 92.626 69.542 92.8 81.084C85.318 92.336 72.5 99.76 58 99.76C43.5 99.76 30.682 92.336 23.2 81.084Z" fill="#D7D7D7"/>
</svg>
