<svg width="41" height="41" viewBox="0 0 41 41" fill="none" xmlns="http://www.w3.org/2000/svg">
<path d="M20.5003 20.4998C17.7045 20.4998 15.3111 19.5044 13.3201 17.5134C11.3291 15.5224 10.3337 13.129 10.3337 10.3332C10.3337 7.53734 11.3291 5.14393 13.3201 3.15296C15.3111 1.16199 17.7045 0.166504 20.5003 0.166504C23.2962 0.166504 25.6896 1.16199 27.6805 3.15296C29.6715 5.14393 30.667 7.53734 30.667 10.3332C30.667 13.129 29.6715 15.5224 27.6805 17.5134C25.6896 19.5044 23.2962 20.4998 20.5003 20.4998ZM0.166992 40.8332V33.7165C0.166992 32.2762 0.537652 30.9524 1.27897 29.7451C2.02029 28.5379 3.00519 27.6165 4.23366 26.9811C6.86005 25.6679 9.5288 24.683 12.2399 24.0264C14.951 23.3698 17.7045 23.0415 20.5003 23.0415C23.2962 23.0415 26.0496 23.3698 28.7607 24.0264C31.4719 24.683 34.1406 25.6679 36.767 26.9811C37.9955 27.6165 38.9804 28.5379 39.7217 29.7451C40.463 30.9524 40.8337 32.2762 40.8337 33.7165V40.8332H0.166992ZM5.25033 35.7498H35.7503V33.7165C35.7503 33.2505 35.6338 32.8269 35.4008 32.4457C35.1679 32.0644 34.8607 31.7679 34.4795 31.5561C32.192 30.4123 29.8833 29.5545 27.5534 28.9826C25.2236 28.4108 22.8725 28.1248 20.5003 28.1248C18.1281 28.1248 15.7771 28.4108 13.4472 28.9826C11.1173 29.5545 8.80866 30.4123 6.52116 31.5561C6.13991 31.7679 5.83279 32.0644 5.5998 32.4457C5.36682 32.8269 5.25033 33.2505 5.25033 33.7165V35.7498ZM20.5003 15.4165C21.8982 15.4165 23.0949 14.9188 24.0904 13.9233C25.0859 12.9278 25.5837 11.7311 25.5837 10.3332C25.5837 8.93525 25.0859 7.73855 24.0904 6.74307C23.0949 5.74758 21.8982 5.24984 20.5003 5.24984C19.1024 5.24984 17.9057 5.74758 16.9102 6.74307C15.9147 7.73855 15.417 8.93525 15.417 10.3332C15.417 11.7311 15.9147 12.9278 16.9102 13.9233C17.9057 14.9188 19.1024 15.4165 20.5003 15.4165Z" fill="#1D1B20"/>
</svg>
